<?xml version="1.0" encoding="UTF-8"?>
<svg version="1.1" xmlns="http://www.w3.org/2000/svg" width="1010" height="1025">
<path d="M0 0 C2.86534024 1.05990642 4.78024506 2.40359514 7.1796875 4.296875 C55.35836843 40.35069482 116.90275656 59.46874931 176.89624023 51.33203125 C200.82847328 47.75128802 223.69240632 40.34829298 245.4921875 29.921875 C246.18683105 29.5904248 246.88147461 29.25897461 247.59716797 28.91748047 C259.0961855 23.38811968 270.34220396 17.4662148 280.89453125 10.26953125 C281.83917236 9.6264502 282.78381348 8.98336914 283.75708008 8.32080078 C285.64183386 7.02826029 287.51826159 5.72348163 289.38549805 4.40576172 C290.24828369 3.81166504 291.11106934 3.21756836 292 2.60546875 C292.76973145 2.06462646 293.53946289 1.52378418 294.33251953 0.96655273 C296.4921875 -0.078125 296.4921875 -0.078125 298.50976562 0.09448242 C300.75251884 1.03052807 302.66709521 2.14705011 304.703125 3.4765625 C305.52401611 4.0034668 306.34490723 4.53037109 307.19067383 5.07324219 C308.07392334 5.64204102 308.95717285 6.21083984 309.8671875 6.796875 C348.76174066 31.25817927 395.77665713 46.87484042 442.03125 47.125 C442.90681549 47.13201431 443.78238098 47.13902863 444.68447876 47.14625549 C447.49543468 47.16365853 450.30617968 47.17010816 453.1171875 47.171875 C454.07927124 47.17254974 455.04135498 47.17322449 456.03259277 47.17391968 C470.71153328 47.15756763 485.0323734 46.66224299 499.4921875 43.921875 C500.44351563 43.74495117 501.39484375 43.56802734 502.375 43.38574219 C517.04237277 40.58481579 531.76407738 37.0143069 545.73828125 31.68359375 C548.89111597 30.81153308 550.39126637 30.95377814 553.4921875 31.921875 C555.09448242 33.57324219 555.09448242 33.57324219 556.47265625 35.71875 C556.99158447 36.50588379 557.5105127 37.29301758 558.04516602 38.10400391 C558.58455811 38.95140137 559.1239502 39.79879883 559.6796875 40.671875 C560.83554547 42.42645663 561.99441529 44.17905777 563.15625 45.9296875 C563.72375977 46.78852539 564.29126953 47.64736328 564.87597656 48.53222656 C566.98249514 51.64681929 569.23042925 54.59077955 571.5546875 57.546875 C577.00957531 64.499183 582.10096698 71.69892469 587.10791016 78.97949219 C588.03973816 80.28700957 589.01519877 81.56437947 590.02880859 82.80957031 C591.47265625 84.6171875 591.47265625 84.6171875 593.4921875 87.921875 C592.78772598 92.24081666 589.7670557 95.46640454 587.1796875 98.921875 C558.70179137 137.96449156 538.61703181 183.84502616 532.4921875 231.921875 C532.34861816 232.98946045 532.34861816 232.98946045 532.20214844 234.07861328 C522.97931805 311.81153681 556.13078858 387.40069942 602.4921875 447.921875 C602.98847656 448.57124023 603.48476563 449.22060547 603.99609375 449.88964844 C612.72590088 461.26575269 621.92316022 472.23357872 631.6171875 482.80078125 C633.36005426 484.77239927 634.94745031 486.79303405 636.4921875 488.921875 C635.09098504 492.09470866 633.44072992 494.21356493 630.97973633 496.64550781 C630.26171341 497.36015198 629.54369049 498.07479614 628.8039093 498.81109619 C628.02686142 499.57468445 627.24981354 500.33827271 626.44921875 501.125 C625.24648567 502.31993073 625.24648567 502.31993073 624.01945496 503.53900146 C621.45256332 506.0880825 618.87911192 508.6304036 616.3046875 511.171875 C613.74894358 513.69987319 611.1947136 516.22935333 608.64347839 518.76190186 C607.0568673 520.33639945 605.46759156 521.90821814 603.87519836 523.47686768 C601.7269338 525.60601198 599.60415948 527.75677174 597.4921875 529.921875 C596.80718674 530.60923737 596.12218597 531.29659973 595.41642761 532.00479126 C592.46308788 535.1227593 590.68372549 537.06881078 589.72924805 541.31982422 C589.77863525 542.44404785 589.82802246 543.56827148 589.87890625 544.7265625 C589.91218018 546.01401367 589.9454541 547.30146484 589.97973633 548.62792969 C590.01273834 549.30545288 590.04574036 549.98297607 590.07974243 550.68103027 C590.25381131 554.36608173 590.29609157 558.05386475 590.359375 561.7421875 C590.38355247 562.8856665 590.38355247 562.8856665 590.40821838 564.05224609 C591.8572523 640.31401012 570.61762385 721.64857261 524.4921875 782.921875 C524.07727051 783.47955566 523.66235352 784.03723633 523.23486328 784.61181641 C518.37044302 791.14072495 513.32567113 797.42624319 507.79296875 803.41015625 C505.89215647 805.48523655 504.04603466 807.58950049 502.20703125 809.71875 C492.88422368 820.39814639 482.66486289 830.20593636 471.4921875 838.921875 C470.43478695 839.80012918 469.38025606 840.68184615 468.328125 841.56640625 C436.0536219 868.46717478 397.83912 887.75366211 358.4921875 901.921875 C357.60144531 902.24494629 356.71070313 902.56801758 355.79296875 902.90087891 C316.42433242 917.03108433 273.8613101 926.0766675 232.07666016 928.06347656 C226.37063275 928.41576261 223.03007847 929.17345273 218.4921875 932.921875 C217.87496826 933.41478027 217.25774902 933.90768555 216.62182617 934.41552734 C214.49478606 936.12233311 212.39820182 937.8616455 210.3046875 939.609375 C208.78786769 940.86731686 207.27094065 942.12512944 205.75390625 943.3828125 C205.02220215 943.99092773 204.29049805 944.59904297 203.53662109 945.22558594 C200.90678267 947.40759183 198.26381929 949.57276809 195.6171875 951.734375 C194.76382813 952.43175781 193.91046875 953.12914062 193.03125 953.84765625 C192.19335938 954.53214844 191.35546875 955.21664062 190.4921875 955.921875 C188.65873714 957.42173196 186.82540579 958.9217344 184.9921875 960.421875 C173.9921875 969.421875 173.9921875 969.421875 171.25390625 971.66015625 C169.37873401 973.19583479 167.50643136 974.73502268 165.63671875 976.27734375 C163.78583616 977.80144983 161.92927679 979.31869495 160.06640625 980.828125 C158.42694823 982.16158403 156.80258012 983.51397402 155.19921875 984.890625 C154.51214844 985.4578125 153.82507813 986.025 153.1171875 986.609375 C152.53195312 987.10824219 151.94671875 987.60710938 151.34375 988.12109375 C149.4921875 988.921875 149.4921875 988.921875 147.13671875 988.375 C143.92163169 986.60836428 141.2819058 984.40610127 138.5546875 981.984375 C134.03933582 978.06793276 129.46610438 974.27164623 124.7421875 970.609375 C118.72909591 965.93233855 112.83626897 961.12198526 106.96557617 956.26782227 C102.01261417 952.17258882 97.04325644 948.09866836 92.0546875 944.046875 C91.44125488 943.54816895 90.82782227 943.04946289 90.19580078 942.53564453 C88.96473451 941.53649441 87.72571229 940.54707849 86.47949219 939.56689453 C84.4921875 937.921875 84.4921875 937.921875 82.37207031 935.83544922 C75.60318437 929.54762247 69.25664429 928.54490858 60.41220093 927.95297241 C56.40984115 927.6807483 52.41910088 927.28227143 48.42578125 926.90234375 C47.60247818 926.82693863 46.77917511 926.75153351 45.93092346 926.67384338 C37.28488411 925.86082614 28.73866372 924.56383775 20.1796875 923.109375 C19.43314911 922.98251312 18.68661072 922.85565125 17.91744995 922.72494507 C-26.2101378 915.141978 -68.85768054 902.81839682 -109.5078125 883.921875 C-110.38775879 883.51356445 -111.26770508 883.10525391 -112.17431641 882.68457031 C-131.81109678 873.46815331 -150.35894144 862.20158413 -167.5078125 848.921875 C-168.69623641 848.0203346 -169.88504237 847.11929762 -171.07421875 846.21875 C-189.53719323 832.11442215 -207.48656864 815.46193594 -221.5078125 796.921875 C-222.43297692 795.73649748 -223.35880641 794.55163886 -224.28515625 793.3671875 C-268.74643401 735.95735965 -287.59766238 665.21231651 -292.6953125 593.796875 C-292.81304788 592.4437573 -292.93088766 591.09064867 -293.04882812 589.73754883 C-293.63724926 582.13290135 -293.37769833 575.36634424 -291.9765625 567.86328125 C-290.10262649 556.29386497 -288.66523464 545.05404344 -295.58825684 534.85778809 C-306.35159842 520.92228665 -320.09594812 508.92698243 -333.4559021 497.5451355 C-334.86713852 496.32070236 -334.86713852 496.32070236 -336.30688477 495.0715332 C-337.14405533 494.36309769 -337.98122589 493.65466217 -338.84376526 492.92475891 C-340.5078125 490.921875 -340.5078125 490.921875 -340.40708923 488.826828 C-339.00513478 485.85704435 -336.76796138 483.68984634 -334.5078125 481.359375 C-330.11587796 476.69906813 -325.95240072 471.93502832 -321.9375 466.94140625 C-320.14616989 464.7152034 -318.34042947 462.50699384 -316.515625 460.30859375 C-300.85238076 441.37037244 -286.80310307 421.20121932 -274.5078125 399.921875 C-274.08387207 399.19436035 -273.65993164 398.4668457 -273.22314453 397.71728516 C-253.19380341 363.1397781 -240.24926001 325.59050875 -235.5078125 285.921875 C-235.37503906 284.88546875 -235.24226563 283.8490625 -235.10546875 282.78125 C-227.80990385 214.42280625 -255.68418566 148.54549078 -294.5078125 93.921875 C-295.06887695 93.22803711 -295.62994141 92.53419922 -296.20800781 91.81933594 C-296.63694336 91.19317383 -297.06587891 90.56701172 -297.5078125 89.921875 C-296.52910218 85.01144907 -292.79433918 81.14275609 -289.7578125 77.296875 C-288.572753 75.77197129 -287.38921198 74.24588656 -286.20703125 72.71875 C-285.59520996 71.92919922 -284.98338867 71.13964844 -284.35302734 70.32617188 C-281.37056255 66.44004945 -278.46805684 62.49637198 -275.5703125 58.546875 C-275.00006348 57.77029541 -274.42981445 56.99371582 -273.84228516 56.19360352 C-272.67291692 54.6002452 -271.50397604 53.00657315 -270.33544922 51.41259766 C-267.10832439 47.0146378 -263.86981902 42.6250637 -260.6328125 38.234375 C-259.4478689 36.62633728 -258.26296846 35.01826776 -257.078125 33.41015625 C-256.22135417 32.24739583 -255.36458333 31.08463542 -254.5078125 29.921875 C-249.60565471 30.48401114 -245.2425691 31.97387417 -240.61767578 33.60083008 C-176.9874044 55.96471412 -102.27956582 51.49495478 -41.19140625 22.94921875 C-37.24308236 21.03900016 -33.36760617 19.0041832 -29.5078125 16.921875 C-28.48880859 16.37829346 -28.48880859 16.37829346 -27.44921875 15.82373047 C-19.39810686 11.50768981 -11.91560051 7.07441884 -4.83984375 1.2578125 C-2.5078125 -0.078125 -2.5078125 -0.078125 0 0 Z " fill="#EBB900" transform="translate(356.5078125,20.078125)"/>
<path d="M0 0 C253.11 0 506.22 0 767 0 C768.1256122 11.25612199 768.1256122 11.25612199 768.14526367 16.4934082 C768.15483345 18.25253288 768.15483345 18.25253288 768.16459656 20.04719543 C768.16626579 21.90522041 768.16626579 21.90522041 768.16796875 23.80078125 C768.17129715 25.11298141 768.17462555 26.42518158 768.17805481 27.77714539 C768.18400877 30.54813457 768.18589893 33.31909277 768.18530273 36.09008789 C768.185222 38.88540187 768.19208442 41.68055012 768.20581055 44.47583008 C768.30713983 65.46064806 767.7052298 86.02351976 763.6875 106.6875 C763.4694873 107.82977051 763.25147461 108.97204102 763.02685547 110.14892578 C761.17362115 119.60161989 758.87480482 128.81074711 756 138 C755.64131836 139.18408447 755.64131836 139.18408447 755.27539062 140.39208984 C744.57294876 175.53269105 727.34196478 207.48620345 703 235 C702.25234375 235.85851562 701.5046875 236.71703125 700.734375 237.6015625 C691.58012893 247.97417945 681.92065582 257.48941995 671 266 C669.99324219 266.80050781 668.98648438 267.60101562 667.94921875 268.42578125 C639.96456642 290.51642796 608.36019734 305.8282605 575 318 C574.18998535 318.29890137 573.3799707 318.59780273 572.54541016 318.90576172 C558.35934819 324.09135728 543.69479278 327.58226893 529 331 C527.99678711 331.23605957 526.99357422 331.47211914 525.95996094 331.71533203 C518.67976031 333.39623462 511.36067189 334.724225 504 336 C502.80819122 336.21443253 501.61638245 336.42886505 500.38845825 336.64979553 C463.95177329 342.91496856 426.87717529 341.76411607 390.04358155 341.64284432 C382.72648443 341.62127753 375.40982268 341.63656167 368.09275323 341.6609875 C360.89218931 341.68401823 353.69180681 341.68671771 346.49121779 341.67379415 C342.249478 341.66618589 338.00802471 341.66441767 333.76630592 341.68147659 C302.52649403 341.78999909 271.96453836 338.63065971 241.49023438 331.56884766 C239.12896274 331.02945914 236.76348084 330.52851207 234.390625 330.04296875 C178.16568039 318.41814026 122.27709869 293.2798417 80 254 C78.62891861 252.80797774 77.2540469 251.62029791 75.875 250.4375 C68.06807369 243.60057255 61.45668742 236.11278582 55 228 C54.13647886 226.94964668 53.27186565 225.90019037 52.40625 224.8515625 C34.87585772 203.38986216 22.30399788 179.00099739 13 153 C12.67370605 152.08847168 12.34741211 151.17694336 12.01123047 150.23779297 C0.98230225 118.85820274 -3.15784258 85.43340294 -3.24023438 52.28100586 C-3.24977714 49.99097974 -3.28087209 47.70192066 -3.3125 45.41210938 C-3.36389296 29.96209988 -1.56534856 15.65348558 0 0 Z " fill="#090704" transform="translate(122,552)"/>
<path d="M0 0 C2.98046875 1.53125 2.98046875 1.53125 6.1875 3.5 C47.68929718 28.08804772 95.28411544 35.20061216 142.875 35.25 C143.90326904 35.25233643 144.93153809 35.25467285 145.9909668 35.25708008 C169.39864554 35.27690335 192.67158288 33.80830501 216 32 C214.60762353 35.66703445 212.96148456 39.06795145 211.09375 42.515625 C202.99268861 57.66548479 195.95893364 72.85643206 190 89 C189.73928711 89.68852051 189.47857422 90.37704102 189.20996094 91.08642578 C177.05743418 123.36927602 172.76391158 158.31617692 172.8125 192.625 C172.81310425 193.41813599 172.8137085 194.21127197 172.81433105 195.02844238 C172.8392918 207.12588015 173.19257553 219.0192208 175 231 C175.13954102 231.94198242 175.27908203 232.88396484 175.42285156 233.85449219 C176.49146546 240.926402 177.6970259 247.96768045 179 255 C179.14131348 255.76957031 179.28262695 256.53914063 179.42822266 257.33203125 C183.85839673 280.77391972 191.67448177 303.59800259 200.99780273 325.5 C202.11589632 328.28910557 203.0497767 331.14933011 204 334 C-32.94 334 -269.88 334 -514 334 C-510.63653846 323.90961538 -510.63653846 323.90961538 -509.16796875 320.16015625 C-508.687229 318.92217285 -508.687229 318.92217285 -508.19677734 317.65917969 C-507.86371582 316.80227539 -507.5306543 315.94537109 -507.1875 315.0625 C-500.38155608 297.27771583 -495.10851666 279.61356477 -491 261 C-490.83902832 260.27135742 -490.67805664 259.54271484 -490.51220703 258.79199219 C-489.69135529 254.98068763 -489.0037783 251.15741284 -488.38720703 247.30810547 C-488.10988239 245.65499882 -487.80859658 244.0058422 -487.49169922 242.35986328 C-484.10683097 224.65963799 -483.59442634 207.22484195 -483.5625 189.25 C-483.55650787 188.13903961 -483.55051575 187.02807922 -483.54434204 185.88345337 C-483.35217865 132.30444801 -498.32748106 80.31441976 -525.98046875 34.41015625 C-528 31 -528 31 -528 30 C-522.33957182 30.462186 -516.69815203 31.02181668 -511.0604248 31.71002197 C-478.37391733 35.69511977 -444.74358797 37.52929405 -412 33 C-410.81051758 32.83870605 -409.62103516 32.67741211 -408.39550781 32.51123047 C-391.8978632 30.21109786 -375.85363796 27.22473624 -360 22 C-359.09942871 21.71286133 -358.19885742 21.42572266 -357.27099609 21.12988281 C-340.93934834 15.90172079 -324.62178515 9.62729897 -309.69140625 1.11328125 C-306.13210639 -0.35899808 -304.68448717 -0.16445795 -301 1 C-297.64149234 2.64193708 -294.42357859 4.50569621 -291.1875 6.375 C-274.94652384 15.49199347 -257.77713541 23.3638641 -240 29 C-239.38914551 29.19754883 -238.77829102 29.39509766 -238.14892578 29.59863281 C-200.94059063 41.53425741 -161.74261902 45.35758802 -123 40 C-121.76467529 39.83927002 -121.76467529 39.83927002 -120.50439453 39.67529297 C-117.93824991 39.33943064 -115.37514765 38.98653227 -112.8125 38.625 C-112.07741211 38.52340576 -111.34232422 38.42181152 -110.58496094 38.31713867 C-96.19587825 36.14193599 -82.39499721 32.09275758 -68.6875 27.3125 C-67.54654373 26.91807709 -67.54654373 26.91807709 -66.38253784 26.51568604 C-54.26536052 22.3164177 -42.50253217 17.69327012 -31 12 C-29.67548828 11.35321289 -29.67548828 11.35321289 -28.32421875 10.69335938 C-23.92348347 8.54223073 -19.53243634 6.3725032 -15.16015625 4.1640625 C-14.42812988 3.79442383 -13.69610352 3.42478516 -12.94189453 3.04394531 C-10.8231718 1.9504583 -10.8231718 1.9504583 -8.30859375 0.1484375 C-5.0887075 -1.45333332 -3.41664182 -1.00719301 0 0 Z " fill="#DA012F" transform="translate(659,89)"/>
<path d="M0 0 C2.36924208 1.22743867 4.60343954 2.4902978 6.875 3.875 C49.21675129 28.5651378 95.50949509 38.57547475 144 41 C144 133.73 144 226.46 144 322 C28.83 322 -86.34 322 -205 322 C-203.2237157 316.07905234 -201.5242056 310.60100331 -199.24731445 304.92651367 C-191.43510478 285.42945672 -186.51656214 265.22175234 -182.5168457 244.64038086 C-182.17306943 242.88415014 -181.82007443 241.12969816 -181.45776367 239.37719727 C-180.38896495 234.20219542 -179.52775398 229.06319412 -178.9375 223.8125 C-178.85951172 223.17248047 -178.78152344 222.53246094 -178.70117188 221.87304688 C-177.24780948 209.32128071 -176.79239258 196.75208638 -176.8125 184.125 C-176.81310425 183.41377991 -176.8137085 182.70255981 -176.81433105 181.9697876 C-176.93203286 130.42070117 -188.9048461 78.53606534 -215.10620117 33.7487793 C-216 32 -216 32 -216 30 C-212.35400689 30.31065326 -208.70823766 30.62386424 -205.0625 30.9375 C-203.53012695 31.06801758 -203.53012695 31.06801758 -201.96679688 31.20117188 C-200.95810547 31.28818359 -199.94941406 31.37519531 -198.91015625 31.46484375 C-197.99371338 31.543396 -197.07727051 31.62194824 -196.13305664 31.70288086 C-194.44692195 31.86278314 -192.76100495 32.03101625 -191.08139038 32.24899292 C-184.41653371 33.09373236 -177.80634371 33.17865188 -171.09375 33.203125 C-169.85620972 33.20882507 -168.61866943 33.21452515 -167.34362793 33.22039795 C-164.72469934 33.22981619 -162.10575908 33.23636925 -159.48681641 33.24023438 C-155.56780902 33.2498339 -151.64935097 33.28084426 -147.73046875 33.3125 C-101.41544552 33.50682544 -54.50155675 24.01571737 -13.28173828 2.31567383 C-5.07623694 -1.89295428 -5.07623694 -1.89295428 0 0 Z " fill="#DA0130" transform="translate(358,96)"/>
<path d="M0 0 C2.86534024 1.05990642 4.78024506 2.40359514 7.1796875 4.296875 C55.35836843 40.35069482 116.90275656 59.46874931 176.89624023 51.33203125 C200.82847328 47.75128802 223.69240632 40.34829298 245.4921875 29.921875 C246.18683105 29.5904248 246.88147461 29.25897461 247.59716797 28.91748047 C259.0961855 23.38811968 270.34220396 17.4662148 280.89453125 10.26953125 C281.83917236 9.6264502 282.78381348 8.98336914 283.75708008 8.32080078 C285.64183386 7.02826029 287.51826159 5.72348163 289.38549805 4.40576172 C290.24828369 3.81166504 291.11106934 3.21756836 292 2.60546875 C292.76973145 2.06462646 293.53946289 1.52378418 294.33251953 0.96655273 C296.4921875 -0.078125 296.4921875 -0.078125 298.50976562 0.09448242 C300.75251884 1.03052807 302.66709521 2.14705011 304.703125 3.4765625 C305.52401611 4.0034668 306.34490723 4.53037109 307.19067383 5.07324219 C308.07392334 5.64204102 308.95717285 6.21083984 309.8671875 6.796875 C348.76174066 31.25817927 395.77665713 46.87484042 442.03125 47.125 C442.90681549 47.13201431 443.78238098 47.13902863 444.68447876 47.14625549 C447.49543468 47.16365853 450.30617968 47.17010816 453.1171875 47.171875 C454.07927124 47.17254974 455.04135498 47.17322449 456.03259277 47.17391968 C470.71153328 47.15756763 485.0323734 46.66224299 499.4921875 43.921875 C500.44351563 43.74495117 501.39484375 43.56802734 502.375 43.38574219 C517.04237277 40.58481579 531.76407738 37.0143069 545.73828125 31.68359375 C548.89111597 30.81153308 550.39126637 30.95377814 553.4921875 31.921875 C555.09448242 33.57324219 555.09448242 33.57324219 556.47265625 35.71875 C556.99158447 36.50588379 557.5105127 37.29301758 558.04516602 38.10400391 C558.58455811 38.95140137 559.1239502 39.79879883 559.6796875 40.671875 C560.83554547 42.42645663 561.99441529 44.17905777 563.15625 45.9296875 C563.72375977 46.78852539 564.29126953 47.64736328 564.87597656 48.53222656 C566.98249514 51.64681929 569.23042925 54.59077955 571.5546875 57.546875 C577.00957531 64.499183 582.10096698 71.69892469 587.10791016 78.97949219 C588.03973816 80.28700957 589.01519877 81.56437947 590.02880859 82.80957031 C591.47265625 84.6171875 591.47265625 84.6171875 593.4921875 87.921875 C592.78772598 92.24081666 589.7670557 95.46640454 587.1796875 98.921875 C558.70179137 137.96449156 538.61703181 183.84502616 532.4921875 231.921875 C532.34861816 232.98946045 532.34861816 232.98946045 532.20214844 234.07861328 C522.97931805 311.81153681 556.13078858 387.40069942 602.4921875 447.921875 C602.98847656 448.57124023 603.48476563 449.22060547 603.99609375 449.88964844 C612.72590088 461.26575269 621.92316022 472.23357872 631.6171875 482.80078125 C633.36005426 484.77239927 634.94745031 486.79303405 636.4921875 488.921875 C635.09098504 492.09470866 633.44072992 494.21356493 630.97973633 496.64550781 C630.26171341 497.36015198 629.54369049 498.07479614 628.8039093 498.81109619 C628.02686142 499.57468445 627.24981354 500.33827271 626.44921875 501.125 C625.24648567 502.31993073 625.24648567 502.31993073 624.01945496 503.53900146 C621.45256332 506.0880825 618.87911192 508.6304036 616.3046875 511.171875 C613.74894358 513.69987319 611.1947136 516.22935333 608.64347839 518.76190186 C607.0568673 520.33639945 605.46759156 521.90821814 603.87519836 523.47686768 C601.7269338 525.60601198 599.60415948 527.75677174 597.4921875 529.921875 C596.80718674 530.60923737 596.12218597 531.29659973 595.41642761 532.00479126 C592.46308788 535.1227593 590.68372549 537.06881078 589.72924805 541.31982422 C589.77863525 542.44404785 589.82802246 543.56827148 589.87890625 544.7265625 C589.91218018 546.01401367 589.9454541 547.30146484 589.97973633 548.62792969 C590.01273834 549.30545288 590.04574036 549.98297607 590.07974243 550.68103027 C590.25381131 554.36608173 590.29609157 558.05386475 590.359375 561.7421875 C590.38355247 562.8856665 590.38355247 562.8856665 590.40821838 564.05224609 C591.8572523 640.31401012 570.61762385 721.64857261 524.4921875 782.921875 C524.07727051 783.47955566 523.66235352 784.03723633 523.23486328 784.61181641 C518.37044302 791.14072495 513.32567113 797.42624319 507.79296875 803.41015625 C505.89215647 805.48523655 504.04603466 807.58950049 502.20703125 809.71875 C492.88422368 820.39814639 482.66486289 830.20593636 471.4921875 838.921875 C470.43478695 839.80012918 469.38025606 840.68184615 468.328125 841.56640625 C436.0536219 868.46717478 397.83912 887.75366211 358.4921875 901.921875 C357.60144531 902.24494629 356.71070313 902.56801758 355.79296875 902.90087891 C316.42433242 917.03108433 273.8613101 926.0766675 232.07666016 928.06347656 C226.37063275 928.41576261 223.03007847 929.17345273 218.4921875 932.921875 C217.87496826 933.41478027 217.25774902 933.90768555 216.62182617 934.41552734 C214.49478606 936.12233311 212.39820182 937.8616455 210.3046875 939.609375 C208.78786769 940.86731686 207.27094065 942.12512944 205.75390625 943.3828125 C205.02220215 943.99092773 204.29049805 944.59904297 203.53662109 945.22558594 C200.90678267 947.40759183 198.26381929 949.57276809 195.6171875 951.734375 C194.76382813 952.43175781 193.91046875 953.12914062 193.03125 953.84765625 C192.19335938 954.53214844 191.35546875 955.21664062 190.4921875 955.921875 C188.65873714 957.42173196 186.82540579 958.9217344 184.9921875 960.421875 C173.9921875 969.421875 173.9921875 969.421875 171.25390625 971.66015625 C169.37873401 973.19583479 167.50643136 974.73502268 165.63671875 976.27734375 C163.78583616 977.80144983 161.92927679 979.31869495 160.06640625 980.828125 C158.42694823 982.16158403 156.80258012 983.51397402 155.19921875 984.890625 C154.51214844 985.4578125 153.82507813 986.025 153.1171875 986.609375 C152.53195312 987.10824219 151.94671875 987.60710938 151.34375 988.12109375 C149.4921875 988.921875 149.4921875 988.921875 147.13671875 988.375 C143.92163169 986.60836428 141.2819058 984.40610127 138.5546875 981.984375 C134.03933582 978.06793276 129.46610438 974.27164623 124.7421875 970.609375 C118.72909591 965.93233855 112.83626897 961.12198526 106.96557617 956.26782227 C102.01261417 952.17258882 97.04325644 948.09866836 92.0546875 944.046875 C91.44125488 943.54816895 90.82782227 943.04946289 90.19580078 942.53564453 C88.96473451 941.53649441 87.72571229 940.54707849 86.47949219 939.56689453 C84.4921875 937.921875 84.4921875 937.921875 82.37207031 935.83544922 C75.60318437 929.54762247 69.25664429 928.54490858 60.41220093 927.95297241 C56.40984115 927.6807483 52.41910088 927.28227143 48.42578125 926.90234375 C47.60247818 926.82693863 46.77917511 926.75153351 45.93092346 926.67384338 C37.28488411 925.86082614 28.73866372 924.56383775 20.1796875 923.109375 C19.43314911 922.98251312 18.68661072 922.85565125 17.91744995 922.72494507 C-26.2101378 915.141978 -68.85768054 902.81839682 -109.5078125 883.921875 C-110.38775879 883.51356445 -111.26770508 883.10525391 -112.17431641 882.68457031 C-131.81109678 873.46815331 -150.35894144 862.20158413 -167.5078125 848.921875 C-168.69623641 848.0203346 -169.88504237 847.11929762 -171.07421875 846.21875 C-189.53719323 832.11442215 -207.48656864 815.46193594 -221.5078125 796.921875 C-222.43297692 795.73649748 -223.35880641 794.55163886 -224.28515625 793.3671875 C-268.74643401 735.95735965 -287.59766238 665.21231651 -292.6953125 593.796875 C-292.81304788 592.4437573 -292.93088766 591.09064867 -293.04882812 589.73754883 C-293.63724926 582.13290135 -293.37769833 575.36634424 -291.9765625 567.86328125 C-290.10262649 556.29386497 -288.66523464 545.05404344 -295.58825684 534.85778809 C-306.35159842 520.92228665 -320.09594812 508.92698243 -333.4559021 497.5451355 C-334.86713852 496.32070236 -334.86713852 496.32070236 -336.30688477 495.0715332 C-337.14405533 494.36309769 -337.98122589 493.65466217 -338.84376526 492.92475891 C-340.5078125 490.921875 -340.5078125 490.921875 -340.40708923 488.826828 C-339.00513478 485.85704435 -336.76796138 483.68984634 -334.5078125 481.359375 C-330.11587796 476.69906813 -325.95240072 471.93502832 -321.9375 466.94140625 C-320.14616989 464.7152034 -318.34042947 462.50699384 -316.515625 460.30859375 C-300.85238076 441.37037244 -286.80310307 421.20121932 -274.5078125 399.921875 C-274.08387207 399.19436035 -273.65993164 398.4668457 -273.22314453 397.71728516 C-253.19380341 363.1397781 -240.24926001 325.59050875 -235.5078125 285.921875 C-235.37503906 284.88546875 -235.24226563 283.8490625 -235.10546875 282.78125 C-227.80990385 214.42280625 -255.68418566 148.54549078 -294.5078125 93.921875 C-295.06887695 93.22803711 -295.62994141 92.53419922 -296.20800781 91.81933594 C-296.63694336 91.19317383 -297.06587891 90.56701172 -297.5078125 89.921875 C-296.52910218 85.01144907 -292.79433918 81.14275609 -289.7578125 77.296875 C-288.572753 75.77197129 -287.38921198 74.24588656 -286.20703125 72.71875 C-285.59520996 71.92919922 -284.98338867 71.13964844 -284.35302734 70.32617188 C-281.37056255 66.44004945 -278.46805684 62.49637198 -275.5703125 58.546875 C-275.00006348 57.77029541 -274.42981445 56.99371582 -273.84228516 56.19360352 C-272.67291692 54.6002452 -271.50397604 53.00657315 -270.33544922 51.41259766 C-267.10832439 47.0146378 -263.86981902 42.6250637 -260.6328125 38.234375 C-259.4478689 36.62633728 -258.26296846 35.01826776 -257.078125 33.41015625 C-256.22135417 32.24739583 -255.36458333 31.08463542 -254.5078125 29.921875 C-249.60565471 30.48401114 -245.2425691 31.97387417 -240.61767578 33.60083008 C-176.9874044 55.96471412 -102.27956582 51.49495478 -41.19140625 22.94921875 C-37.24308236 21.03900016 -33.36760617 19.0041832 -29.5078125 16.921875 C-28.48880859 16.37829346 -28.48880859 16.37829346 -27.44921875 15.82373047 C-19.39810686 11.50768981 -11.91560051 7.07441884 -4.83984375 1.2578125 C-2.5078125 -0.078125 -2.5078125 -0.078125 0 0 Z M-8.9453125 29.296875 C-24.7046171 40.00026081 -41.61213421 47.51822246 -59.5078125 53.921875 C-60.41934082 54.24816895 -61.33086914 54.57446289 -62.27001953 54.91064453 C-116.40709765 73.93810614 -186.05265707 78.4720278 -240.08447266 56.59375 C-242.77114968 55.84886433 -243.9656702 55.81738585 -246.5078125 56.921875 C-247.93949235 58.25369614 -247.93949235 58.25369614 -249.1015625 59.9921875 C-249.56916992 60.63478516 -250.03677734 61.27738281 -250.51855469 61.93945312 C-251.2557373 62.98262695 -251.2557373 62.98262695 -252.0078125 64.046875 C-253.06288843 65.49900831 -254.12024606 66.94948609 -255.1796875 68.3984375 C-255.72302734 69.14383789 -256.26636719 69.88923828 -256.82617188 70.65722656 C-259.54517761 74.31888411 -262.39478258 77.8723725 -265.2578125 81.421875 C-266.04575195 82.40051514 -266.04575195 82.40051514 -266.84960938 83.39892578 C-268.06689782 84.90828176 -269.28701347 86.41535704 -270.5078125 87.921875 C-269.0136072 92.22775693 -266.71945394 95.71559741 -264.1328125 99.421875 C-243.44965292 129.89551952 -227.45620961 164.32674836 -220.01806641 200.48339844 C-219.51198899 202.90191578 -218.95833852 205.30529426 -218.39453125 207.7109375 C-215.22954462 221.65215205 -214.1319532 235.66046407 -213.5078125 249.921875 C-213.46108398 250.98148438 -213.41435547 252.04109375 -213.36621094 253.1328125 C-210.24212376 337.35190212 -249.28767414 418.51268554 -303.5078125 480.921875 C-304.24644531 481.77265625 -304.98507812 482.6234375 -305.74609375 483.5 C-307.32741495 485.31265676 -308.91342905 487.12071144 -310.5078125 488.921875 C-308.89751995 493.02080148 -305.92964102 495.68392313 -302.8203125 498.671875 C-298.78388657 502.62219051 -294.94256865 506.62540557 -291.28125 510.9296875 C-288.32306837 514.25275497 -285.11330761 517.32377525 -281.94921875 520.44921875 C-278.63663216 523.80420645 -275.56755963 527.33813448 -272.5078125 530.921875 C-272.1778125 531.251875 -271.8478125 531.581875 -271.5078125 531.921875 C-271.43987046 533.9248244 -271.44325907 535.93021082 -271.47363281 537.93408203 C-271.49762146 539.87932266 -271.49762146 539.87932266 -271.52209473 541.86386108 C-271.53796379 542.91577196 -271.53796379 542.91577196 -271.55415344 543.98893356 C-271.60875728 547.75256789 -271.64083376 551.51640551 -271.67480469 555.28027344 C-271.68219666 556.07265852 -271.68958862 556.8650436 -271.69720459 557.68144035 C-272.18701643 591.76186711 -272.18701643 591.76186711 -269.2578125 625.671875 C-269.15521118 626.39779846 -269.05260986 627.12372192 -268.94689941 627.87164307 C-262.06410368 674.9113266 -247.15013856 722.22348368 -220.5078125 761.921875 C-220.02602539 762.64262207 -219.54423828 763.36336914 -219.04785156 764.10595703 C-212.44311752 773.90133195 -205.32875555 783.07406004 -197.5078125 791.921875 C-196.81816406 792.72238281 -196.12851563 793.52289062 -195.41796875 794.34765625 C-184.79947645 806.47434132 -173.32296486 818.12205261 -160.5078125 827.921875 C-159.5075 828.7159375 -158.5071875 829.51 -157.4765625 830.328125 C-149.46008082 836.66313674 -141.12075414 842.42927137 -132.5078125 847.921875 C-131.92870117 848.29135254 -131.34958984 848.66083008 -130.75292969 849.04150391 C-93.74722891 872.41407782 -51.32630523 888.90647579 -8.5078125 897.921875 C-7.86406677 898.05853577 -7.22032104 898.19519653 -6.55706787 898.33599854 C11.36058353 902.12698916 29.27945207 905.26436902 47.4921875 907.234375 C48.24735657 907.31662323 49.00252563 907.39887146 49.78057861 907.48361206 C56.86676858 908.24561845 63.94215085 908.93115547 71.0625 909.2890625 C86.74479157 910.13302404 86.74479157 910.13302404 93.328125 917.4375 C94.04226563 918.25734375 94.75640625 919.0771875 95.4921875 919.921875 C97.21317693 921.39398288 98.96478766 922.83089501 100.7421875 924.234375 C105.05669635 927.72620208 109.28928261 931.29763919 113.4921875 934.921875 C118.47175705 939.2134246 123.5120302 943.41342667 128.62109375 947.55078125 C130.82103075 949.36759997 132.98952157 951.20527725 135.14453125 953.07421875 C135.77230469 953.61820313 136.40007812 954.1621875 137.046875 954.72265625 C138.27536052 955.79057209 139.50077622 956.86203261 140.72265625 957.9375 C143.49943467 960.35125922 146.06682661 962.51638294 149.4921875 963.921875 C150.23082031 963.23222656 150.96945312 962.54257812 151.73046875 961.83203125 C157.50676932 956.46976453 163.37008574 951.3123985 169.51171875 946.3671875 C173.0650929 943.45183728 176.52942483 940.44375657 179.9921875 937.421875 C185.15951741 932.91631005 190.34517137 928.45983563 195.765625 924.2578125 C197.86708355 922.45742251 199.42111205 920.87241494 201.15625 918.7734375 C207.84782888 911.20548704 213.95568014 909.13493141 224.01879883 908.48022461 C228.76180129 908.24649008 233.50498078 908.16867294 238.25314331 908.10610962 C252.64382646 907.84647672 266.91850178 905.40155116 281.0546875 902.859375 C281.89057404 902.7094812 282.72646057 902.5595874 283.587677 902.40515137 C362.74988493 888.05094275 446.01241608 852.05037081 497.22265625 787.74609375 C498.73293097 785.86669853 500.2776047 784.01442604 501.85546875 782.19140625 C525.75734655 754.55366876 540.83617909 721.18068652 552.4921875 686.921875 C553.01400338 685.4321797 553.53608432 683.94257718 554.05859375 682.453125 C559.44504298 666.37820441 562.03023619 649.43661675 564.6796875 632.734375 C564.83445557 631.77611816 564.98922363 630.81786133 565.14868164 629.83056641 C567.83108879 612.19581791 568.8076474 594.61967625 568.69799805 576.7980957 C568.67963349 573.7253387 568.67749037 570.65288469 568.67773438 567.58007812 C568.67249131 565.55468581 568.66663815 563.52929498 568.66015625 561.50390625 C568.66026703 560.52034653 568.66037781 559.5367868 568.66049194 558.52342224 C568.6341475 553.83091073 568.47050913 549.24281122 567.92236328 544.58032227 C566.57629342 532.67741628 566.57629342 532.67741628 569.17260742 527.70092773 C571.60050034 524.88322045 574.11074645 522.58302882 576.9921875 520.234375 C578.7960081 518.62825107 580.59812055 517.02020647 582.3984375 515.41015625 C583.27298584 514.65621582 584.14753418 513.90227539 585.04858398 513.12548828 C587.92471925 510.53182289 590.40595593 507.7436487 592.89697266 504.78588867 C595.41766814 501.84044789 598.16759551 499.13891405 600.9296875 496.421875 C601.47044922 495.885625 602.01121094 495.349375 602.56835938 494.796875 C603.87395367 493.50283464 605.18271746 492.21199326 606.4921875 490.921875 C604.40800829 487.17831744 602.07730958 484.25984288 599.1171875 481.171875 C592.35655639 473.84130697 586.40802255 465.94111807 580.4921875 457.921875 C579.98397461 457.23319336 579.47576172 456.54451172 578.95214844 455.83496094 C543.87219307 407.95710654 518.62968736 351.32048601 512.4921875 291.921875 C512.3979248 291.05328857 512.30366211 290.18470215 512.20654297 289.28979492 C505.59100815 221.10481483 523.16123065 147.16405945 566.16235352 92.81079102 C567.70684439 90.99541528 567.70684439 90.99541528 567.51953125 88.63671875 C566.03495463 84.71359802 563.63544387 81.76147559 561.0546875 78.484375 C559.966027 77.07010305 558.87881526 75.65471486 557.79296875 74.23828125 C557.24334473 73.52430176 556.6937207 72.81032227 556.12744141 72.07470703 C553.59490927 68.74059709 551.16338758 65.33729839 548.7421875 61.921875 C548.31236572 61.31674072 547.88254395 60.71160645 547.43969727 60.08813477 C546.45550011 58.70058145 545.47355932 57.31142802 544.4921875 55.921875 C538.62304791 57.00438785 532.90385297 58.32330341 527.17089844 59.97802734 C502.06616417 67.06647674 477.41532773 69.38802836 451.4296875 69.421875 C450.37479126 69.42636658 449.31989502 69.43085815 448.23303223 69.43548584 C427.83810208 69.47083165 407.50216724 67.82010931 387.6171875 63.109375 C386.49916748 62.85220703 385.38114746 62.59503906 384.22924805 62.33007812 C374.47382665 60.0302412 364.94875763 57.23353996 355.4921875 53.921875 C354.81720215 53.69032715 354.1422168 53.4587793 353.44677734 53.22021484 C337.55446366 47.72929857 322.55403817 40.57855228 308.36572266 31.55200195 C306.42222583 30.31651568 304.46091834 29.11652366 302.4921875 27.921875 C301.66074219 27.38820313 300.82929687 26.85453125 299.97265625 26.3046875 C295.73486712 25.6506665 293.02265909 28.34060935 289.6796875 30.734375 C288.14958379 31.77444442 286.61697547 32.81083762 285.08203125 33.84375 C283.92550049 34.62782227 283.92550049 34.62782227 282.74560547 35.42773438 C264.63443366 47.43644201 244.31139432 56.15817716 223.81445312 63.13037109 C221.91416706 63.7780506 220.02218548 64.45005014 218.1328125 65.12890625 C210.82248713 67.60848958 203.30397906 69.06187061 195.7421875 70.546875 C194.69514648 70.7533667 193.64810547 70.9598584 192.56933594 71.17260742 C177.77611573 73.96192055 163.16219045 75.33544199 148.1171875 75.296875 C147.3438205 75.29666351 146.57045349 75.29645203 145.77365112 75.29623413 C131.08970152 75.25656049 116.9047592 73.8247521 102.4921875 70.921875 C101.55391113 70.73463867 100.61563477 70.54740234 99.64892578 70.35449219 C64.530212 63.12471964 31.30467473 48.04801599 2.3671875 26.921875 C-2.60896274 23.46020527 -4.53600449 26.20956472 -8.9453125 29.296875 Z " fill="#010000" transform="translate(356.5078125,20.078125)"/>
<path d="M0 0 C1.09876465 0.00491455 2.1975293 0.0098291 3.32958984 0.01489258 C28.81206609 0.37956914 52.86788538 9.2727328 71.875 26.3125 C72.55433594 26.85003906 73.23367188 27.38757813 73.93359375 27.94140625 C93.21069358 43.4173878 104.82669287 68.86923258 107.67651367 92.99389648 C110.17107902 122.13397906 103.9437554 150.25966237 85.25585938 173.30957031 C78.01919086 181.82402773 70.24526426 189.18253357 60.875 195.3125 C59.84503906 195.99699219 58.81507813 196.68148437 57.75390625 197.38671875 C35.40708042 211.2054273 6.36186674 216.48135211 -19.4296875 210.9921875 C-20.31914062 210.76789063 -21.20859375 210.54359375 -22.125 210.3125 C-23.20007813 210.06757812 -24.27515625 209.82265625 -25.3828125 209.5703125 C-52.38432759 202.74442613 -75.97861793 184.29910432 -90.1953125 160.52246094 C-103.45571592 137.14708444 -108.43038528 107.96905185 -102.08984375 81.671875 C-97.25549245 64.83972067 -90.15048193 49.22387167 -78.125 36.3125 C-77.65610352 35.7973584 -77.18720703 35.2822168 -76.70410156 34.75146484 C-56.9499209 13.2008684 -29.49497624 -0.15676732 0 0 Z " fill="#090701" transform="translate(504.125,612.6875)"/>
<path d="M0 0 C36.96 0 73.92 0 112 0 C112 103.29 112 206.58 112 313 C102.97611069 311.87201384 102.97611069 311.87201384 98.2265625 310.3203125 C97.16808105 309.97452148 96.10959961 309.62873047 95.01904297 309.27246094 C93.89900879 308.89379883 92.77897461 308.51513672 91.625 308.125 C90.44180176 307.72571289 89.25860352 307.32642578 88.03955078 306.91503906 C61.62769463 297.82490309 35.11192662 286.22051553 12.01463544 270.32460314 C9.95345632 268.93370004 9.95345632 268.93370004 7.50344336 267.6122784 C0.56798147 263.45883051 0.56798147 263.45883051 -0.92012906 259.63669693 C-1.26177477 256.7857532 -1.28623547 254.08207272 -1.20254517 251.21168518 C-1.21536154 249.59787764 -1.21536154 249.59787764 -1.22843683 247.95146793 C-1.24489366 244.35079091 -1.18995181 240.75478743 -1.13525391 237.15454102 C-1.1324328 234.57226166 -1.13401721 231.98997428 -1.13967896 229.40769958 C-1.14491509 223.85082804 -1.1136231 218.29513332 -1.05730057 212.73855782 C-0.97592361 204.70496165 -0.94997583 196.67193277 -0.93742065 188.63796913 C-0.91555051 175.60280614 -0.84904645 162.56827001 -0.75439453 149.53344727 C-0.66256159 136.87364838 -0.59179877 124.21401993 -0.54931641 111.55395508 C-0.54668917 110.7732013 -0.54406194 109.99244752 -0.54135509 109.18803454 C-0.52830443 105.27110339 -0.51566742 101.35417102 -0.50323606 97.43723786 C-0.39961895 64.95760303 -0.21529761 32.47913425 0 0 Z " fill="#A40044" transform="translate(227,558)"/>
<path d="M0 0 C36.96 0 73.92 0 112 0 C112.30878887 33.07977083 112.56722294 66.15814029 112.71491461 99.23891925 C112.73242397 103.14658673 112.75054453 107.05425115 112.76904297 110.96191406 C112.77271531 111.73984141 112.77638766 112.51776876 112.78017129 113.31926967 C112.84104858 125.90655077 112.95140732 138.4929344 113.08013915 151.07968353 C113.21118031 164.00023758 113.28884728 176.92032248 113.31723893 189.84151375 C113.33642608 197.8116969 113.39695536 205.77934347 113.51083054 213.7487454 C113.59376971 219.86569155 113.60234473 225.98071485 113.58350754 232.09814644 C113.587355 234.60324387 113.61515344 237.10843846 113.66887665 239.61296272 C114.04496077 258.05219725 114.04496077 258.05219725 110.63148546 262.97270823 C106.92793717 266.67737087 102.71294534 268.81633655 98 271 C96.29339971 272.05923635 94.59772092 273.13685853 92.92578125 274.25 C91.39274195 275.17454063 89.85494691 276.09124129 88.3125 277 C87.47146729 277.49854492 86.63043457 277.99708984 85.76391602 278.51074219 C70.98395057 287.19136784 55.95145489 294.72445553 40 301 C39.03835938 301.38075684 38.07671875 301.76151367 37.0859375 302.15380859 C34.00040449 303.36760283 30.90814972 304.56226237 27.8125 305.75 C26.87575439 306.11488525 25.93900879 306.47977051 24.97387695 306.85571289 C16.67269763 309.98378693 8.7855181 311.80362047 0 314 C0 210.38 0 106.76 0 0 Z " fill="#A40044" transform="translate(671,558)"/>
<path d="M0 0 C0 100.65 0 201.3 0 305 C-36.3 305 -72.6 305 -110 305 C-110 212.27 -110 119.54 -110 24 C-93.17 22.515 -93.17 22.515 -76 21 C-53.35533577 17.2258893 -32.58246049 11.10671212 -11.11376953 3.2512207 C-9.38296143 2.62026489 -9.38296143 2.62026489 -7.6171875 1.9765625 C-6.58190918 1.59580566 -5.54663086 1.21504883 -4.47998047 0.82275391 C-2 0 -2 0 0 0 Z " fill="#DA002F" transform="translate(617,113)"/>
<path d="M0 0 C10.56 1.32 21.12 2.64 32 4 C41.70088416 4.60630526 51.1968573 5.15140252 60.8828125 5.1328125 C62.59692825 5.13424759 62.59692825 5.13424759 64.34567261 5.13571167 C66.73354142 5.13638484 69.12141216 5.13459166 71.50927734 5.13037109 C75.12471692 5.12500042 78.74003288 5.13035096 82.35546875 5.13671875 C92.69424711 5.13943155 102.96098811 5.11972917 113.26611328 4.22265625 C117.14101847 3.9070719 120.99012402 3.88709742 124.875 3.9375 C125.57496094 3.94201172 126.27492188 3.94652344 126.99609375 3.95117188 C128.66410278 3.96259659 130.33206577 3.98050466 132 4 C131.46632813 5.10472656 130.93265625 6.20945313 130.3828125 7.34765625 C114.30209032 40.82815099 102.08082792 74.12921135 96.31761169 110.97496033 C96.03558058 112.77314408 95.74314792 114.56968954 95.44921875 116.3659668 C93.75948834 127.99173124 93.6955135 139.5375343 93.73925781 151.27026367 C93.74992639 154.6640838 93.73933501 158.05736829 93.7265625 161.45117188 C93.71352421 179.71151101 94.79671178 197.61435918 98.3125 215.5625 C98.5305127 216.69961426 98.74852539 217.83672852 98.97314453 219.00830078 C103.33505814 241.30705541 109.76293953 262.59354546 118.4230957 283.60546875 C118.7449585 284.38664062 119.06682129 285.1678125 119.3984375 285.97265625 C119.82648682 286.99758179 119.82648682 286.99758179 120.26318359 288.04321289 C121 290 121 290 122 294 C81.74 294 41.48 294 0 294 C0 196.98 0 99.96 0 0 Z " fill="#DA012F" transform="translate(733,124)"/>
<path d="M0 0 C36.3 0 72.6 0 110 0 C110.2475 11.694375 110.495 23.38875 110.75 35.4375 C110.85924805 39.11447021 110.96849609 42.79144043 111.08105469 46.57983398 C111.13525391 51.10949707 111.13525391 51.10949707 111.14532471 53.23768616 C111.1636195 54.70773552 111.20555923 56.17761696 111.26690674 57.64649963 C111.75832679 70.04496829 111.75832679 70.04496829 107.38117981 74.91178894 C104.45238549 77.27358387 101.25096242 79.11308163 98 81 C95.58754662 83.01978278 93.37941719 85.18242344 91.1875 87.4375 C90.64254883 87.99405273 90.09759766 88.55060547 89.53613281 89.12402344 C78.05259076 101.07432034 69.173852 116.93699382 65 133 C64.70351563 134.06476563 64.40703125 135.12953125 64.1015625 136.2265625 C57.51533986 163.47781396 63.03367427 192.96558001 77 217 C79.79552365 221.18304546 82.80680694 225.11404641 86 229 C86.69867188 229.86367188 87.39734375 230.72734375 88.1171875 231.6171875 C94.06809169 238.61440452 101.68577679 245.84288839 110 250 C110 276.4 110 302.8 110 330 C98.49851503 330 87.68879766 329.97380291 76.375 328.6875 C75.12428711 328.55069824 73.87357422 328.41389648 72.58496094 328.27294922 C64.08382784 327.31257478 55.68403803 326.15465033 47.29736328 324.4609375 C44.57518572 323.91476627 41.84828672 323.39553946 39.12109375 322.875 C36.97635629 322.45939609 34.83182442 322.04272977 32.6875 321.625 C31.24842285 321.347771 31.24842285 321.347771 29.78027344 321.06494141 C19.73482283 319.06547527 9.98046057 316.49511514 0 314 C0 210.38 0 106.76 0 0 Z " fill="#004C97" transform="translate(339,558)"/>
<path d="M0 0 C36.3 0 72.6 0 110 0 C110 103.62 110 207.24 110 314 C99.85638185 317.38120605 99.85638185 317.38120605 94.65625 318.46484375 C92.93112183 318.82582153 92.93112183 318.82582153 91.17114258 319.1940918 C89.95966553 319.4394165 88.74818848 319.68474121 87.5 319.9375 C86.21826904 320.19764893 84.93653809 320.45779785 83.6159668 320.72583008 C65.5678548 324.3537282 47.58328418 327.10474036 29.25 328.75 C28.1759642 328.84781265 28.1759642 328.84781265 27.08023071 328.94760132 C24.99677058 329.1341767 22.9127355 329.31116674 20.828125 329.484375 C19.6309082 329.58459961 18.43369141 329.68482422 17.20019531 329.78808594 C11.47599764 330.16038246 5.73303494 330.04046079 0 330 C-0.27877069 319.98622179 -0.49161585 309.97337457 -0.62174606 299.95649815 C-0.68422499 295.30431589 -0.76886016 290.65479858 -0.90527344 286.00415039 C-1.03624666 281.51053427 -1.10752316 277.01946988 -1.13852692 272.52409172 C-1.16060013 270.81460324 -1.20371241 269.10524555 -1.26876068 267.39685249 C-1.75782224 254.01272192 -1.75782224 254.01272192 2.62898254 248.98979187 C5.53945796 246.62104467 8.71931671 244.81513096 12 243 C31.70895864 227.86929369 45.34128908 203.71064384 49.56640625 179.3046875 C51.35986232 164.21618388 50.81002939 148.71232129 47 134 C46.73316406 132.91203125 46.46632813 131.8240625 46.19140625 130.703125 C42.31312112 116.5689303 35.27133045 104.25450274 26 93 C25.41089844 92.23558594 24.82179688 91.47117187 24.21484375 90.68359375 C17.9770235 83.01998601 8.89387005 75.44693502 0 71 C0 47.57 0 24.14 0 0 Z " fill="#004C97" transform="translate(561,558)"/>
<path d="M0 0 C33 0 66 0 100 0 C100 86.13 100 172.26 100 261 C81.40317345 249.84190407 64.12612338 232.21496889 51 215 C50.57122559 214.44231934 50.14245117 213.88463867 49.70068359 213.31005859 C42.76968722 204.25476962 36.60689509 194.92605825 31 185 C30.63165039 184.35901367 30.26330078 183.71802734 29.88378906 183.05761719 C22.93136087 170.88333052 17.86462452 158.12607879 13 145 C12.65533691 144.09886475 12.31067383 143.19772949 11.95556641 142.26928711 C9.48513646 135.7101726 7.60431708 129.13262168 6 122.3125 C5.74581299 121.23887207 5.49162598 120.16524414 5.22973633 119.05908203 C3.49118162 111.53468319 1.98371312 103.98780642 0.6875 96.375 C0.52830078 95.45372314 0.36910156 94.53244629 0.20507812 93.58325195 C-2.30386052 78.03639809 -2.18637018 62.37922634 -2.18530273 46.67602539 C-2.18749324 43.0736109 -2.20572059 39.47150141 -2.22460938 35.86914062 C-2.22754389 33.52864686 -2.2295283 31.18815167 -2.23046875 28.84765625 C-2.23765427 27.79610855 -2.24483978 26.74456085 -2.25224304 25.66114807 C-2.2259185 16.83536033 -1.11917257 8.95338058 0 0 Z " fill="#004C97" transform="translate(127,558)"/>
<path d="M0 0 C33.33 0 66.66 0 101 0 C102.12562352 12.38185867 102.12562352 12.38185867 102.14526367 16.62890625 C102.15164352 17.58780762 102.15802338 18.54670898 102.16459656 19.53466797 C102.16570938 20.53385254 102.1668222 21.53303711 102.16796875 22.5625 C102.17296135 24.16955811 102.17296135 24.16955811 102.17805481 25.80908203 C102.18308581 28.06461157 102.18546433 30.32014845 102.18530273 32.57568359 C102.18747648 35.96334648 102.20563879 39.35067629 102.22460938 42.73828125 C102.25854808 55.63109289 101.72367612 68.2216478 100 81 C99.77292358 82.7648877 99.77292358 82.7648877 99.54125977 84.56542969 C92.78096237 134.81508005 74.44388007 183.32671323 41 222 C40.35289062 222.75796875 39.70578125 223.5159375 39.0390625 224.296875 C13.82164179 253.0891791 13.82164179 253.0891791 0 260 C0 174.2 0 88.4 0 0 Z " fill="#004C97" transform="translate(783,558)"/>
<path d="M0 0 C2.98046875 1.53125 2.98046875 1.53125 6.1875 3.5 C47.68929718 28.08804772 95.28411544 35.20061216 142.875 35.25 C143.90326904 35.25233643 144.93153809 35.25467285 145.9909668 35.25708008 C169.39864554 35.27690335 192.67158288 33.80830501 216 32 C214.60762353 35.66703445 212.96148456 39.06795145 211.09375 42.515625 C202.99268861 57.66548479 195.95893364 72.85643206 190 89 C189.73928711 89.68852051 189.47857422 90.37704102 189.20996094 91.08642578 C177.05743418 123.36927602 172.76391158 158.31617692 172.8125 192.625 C172.81310425 193.41813599 172.8137085 194.21127197 172.81433105 195.02844238 C172.8392918 207.12588015 173.19257553 219.0192208 175 231 C175.13954102 231.94198242 175.27908203 232.88396484 175.42285156 233.85449219 C176.49146546 240.926402 177.6970259 247.96768045 179 255 C179.14131348 255.76957031 179.28262695 256.53914063 179.42822266 257.33203125 C183.85839673 280.77391972 191.67448177 303.59800259 200.99780273 325.5 C202.11589632 328.28910557 203.0497767 331.14933011 204 334 C-32.94 334 -269.88 334 -514 334 C-510.63653846 323.90961538 -510.63653846 323.90961538 -509.16796875 320.16015625 C-508.687229 318.92217285 -508.687229 318.92217285 -508.19677734 317.65917969 C-507.86371582 316.80227539 -507.5306543 315.94537109 -507.1875 315.0625 C-500.38155608 297.27771583 -495.10851666 279.61356477 -491 261 C-490.83902832 260.27135742 -490.67805664 259.54271484 -490.51220703 258.79199219 C-489.69135529 254.98068763 -489.0037783 251.15741284 -488.38720703 247.30810547 C-488.10988239 245.65499882 -487.80859658 244.0058422 -487.49169922 242.35986328 C-484.10683097 224.65963799 -483.59442634 207.22484195 -483.5625 189.25 C-483.55650787 188.13903961 -483.55051575 187.02807922 -483.54434204 185.88345337 C-483.35217865 132.30444801 -498.32748106 80.31441976 -525.98046875 34.41015625 C-528 31 -528 31 -528 30 C-522.33957182 30.462186 -516.69815203 31.02181668 -511.0604248 31.71002197 C-478.37391733 35.69511977 -444.74358797 37.52929405 -412 33 C-410.81051758 32.83870605 -409.62103516 32.67741211 -408.39550781 32.51123047 C-391.8978632 30.21109786 -375.85363796 27.22473624 -360 22 C-359.09942871 21.71286133 -358.19885742 21.42572266 -357.27099609 21.12988281 C-340.93934834 15.90172079 -324.62178515 9.62729897 -309.69140625 1.11328125 C-306.13210639 -0.35899808 -304.68448717 -0.16445795 -301 1 C-297.64149234 2.64193708 -294.42357859 4.50569621 -291.1875 6.375 C-274.94652384 15.49199347 -257.77713541 23.3638641 -240 29 C-239.38914551 29.19754883 -238.77829102 29.39509766 -238.14892578 29.59863281 C-200.94059063 41.53425741 -161.74261902 45.35758802 -123 40 C-121.76467529 39.83927002 -121.76467529 39.83927002 -120.50439453 39.67529297 C-117.93824991 39.33943064 -115.37514765 38.98653227 -112.8125 38.625 C-112.07741211 38.52340576 -111.34232422 38.42181152 -110.58496094 38.31713867 C-96.19587825 36.14193599 -82.39499721 32.09275758 -68.6875 27.3125 C-67.54654373 26.91807709 -67.54654373 26.91807709 -66.38253784 26.51568604 C-54.26536052 22.3164177 -42.50253217 17.69327012 -31 12 C-29.67548828 11.35321289 -29.67548828 11.35321289 -28.32421875 10.69335938 C-23.92348347 8.54223073 -19.53243634 6.3725032 -15.16015625 4.1640625 C-14.42812988 3.79442383 -13.69610352 3.42478516 -12.94189453 3.04394531 C-10.8231718 1.9504583 -10.8231718 1.9504583 -8.30859375 0.1484375 C-5.0887075 -1.45333332 -3.41664182 -1.00719301 0 0 Z M-11.6875 8.3125 C-30.62535444 19.46045871 -51.22420716 27.06414987 -72 34 C-72.91233398 34.30808594 -73.82466797 34.61617187 -74.76464844 34.93359375 C-99.99548767 43.35357393 -125.34430651 45.64802705 -152 48 C-152 140.73 -152 233.46 -152 329 C-37.16 329 77.68 329 196 329 C194.728035 325.18410499 193.44096457 321.44253155 192.01171875 317.69140625 C190.0090179 312.41328428 188.02585195 307.12829464 186.05712891 301.83740234 C185.44351946 300.19043491 184.82736283 298.5444032 184.20458984 296.90087891 C173.33944024 268.05811645 167.92733326 235.00031946 167.796875 204.296875 C167.79117493 203.2165802 167.78547485 202.1362854 167.77960205 201.02325439 C167.77022073 198.74760901 167.7636457 196.47195047 167.75976562 194.19628906 C167.75014132 190.79987316 167.71908405 187.40408498 167.6875 184.0078125 C167.58254321 162.39132926 170.06661695 141.70942487 175.31738281 120.74755859 C176.00519114 117.97910549 176.65635743 115.2037157 177.3046875 112.42578125 C182.86489821 89.22047344 192.16978781 67.73245933 202.83007812 46.44995117 C203.99884688 44.00241477 205.0211586 41.5287678 206 39 C203.62491537 38.97223927 201.2501749 38.9528096 198.875 38.9375 C197.90626953 38.92493164 197.90626953 38.92493164 196.91796875 38.91210938 C192.61130551 38.89160145 188.38463242 39.12260445 184.09375 39.4921875 C173.80656112 40.26596601 163.50206372 40.18601082 153.19091797 40.18530273 C149.66751737 40.1874738 146.14443861 40.20564017 142.62109375 40.22460938 C91.86789981 40.35080915 43.10641115 32.02359726 -1.13818359 5.89160156 C-5.47197177 3.81620235 -7.94799701 6.0172823 -11.6875 8.3125 Z M-311.4375 8.0546875 C-312.31865479 8.49997803 -313.19980957 8.94526855 -314.10766602 9.40405273 C-315.53937134 10.13217163 -315.53937134 10.13217163 -317 10.875 C-326.00128354 15.31872669 -335.10020751 19.08744038 -344.5625 22.4375 C-345.68978516 22.83759277 -346.81707031 23.23768555 -347.97851562 23.64990234 C-381.83373974 35.40216197 -415.43646223 40.37743164 -451.17822266 40.31567383 C-454.96676835 40.3125276 -458.75451956 40.33601938 -462.54296875 40.36132812 C-478.69794356 40.40098781 -494.43431719 39.33175816 -510.45166016 37.27043152 C-513.23583607 36.92964792 -513.23583607 36.92964792 -517 37 C-515.58892583 41.63739954 -513.66160572 45.83635104 -511.4375 50.125 C-492.03884584 88.53914702 -478.68136887 130.62734715 -478 174 C-477.97953613 175.18368164 -477.95907227 176.36736328 -477.93798828 177.58691406 C-477.68707295 193.75253232 -477.69455679 209.80652396 -479.73095703 225.87451172 C-479.97606359 227.81089802 -480.19085631 229.75106036 -480.40234375 231.69140625 C-482.63019627 250.68119674 -486.65772202 269.43312874 -492.29003906 287.69238281 C-492.94749953 289.82935541 -493.58278988 291.97145195 -494.2109375 294.1171875 C-496.84431504 302.97521259 -500.03594993 311.57167166 -503.40966797 320.171875 C-503.91264404 321.45964844 -503.91264404 321.45964844 -504.42578125 322.7734375 C-504.72911377 323.54091309 -505.03244629 324.30838867 -505.3449707 325.09912109 C-506.10859745 326.98005161 -506.10859745 326.98005161 -506 329 C-390.83 329 -275.66 329 -157 329 C-157 236.27 -157 143.54 -157 48 C-167.23 47.34 -177.46 46.68 -188 46 C-195.75145073 44.84127798 -203.35279012 43.62367434 -211 42 C-211.86705566 41.82098145 -212.73411133 41.64196289 -213.62744141 41.45751953 C-244.4433561 34.99695466 -276.66949389 23.55367074 -303 6 C-306.95379188 6 -308.09309855 6.3169241 -311.4375 8.0546875 Z " fill="#070501" transform="translate(659,89)"/>
<path d="M0 0 C7.17920722 1.95796561 14.32070611 3.95248185 21.43945312 6.10546875 C27.59625099 7.94139898 33.74273088 9.43568272 40 11 C40 108.02 40 205.04 40 305 C26.8 305 13.6 305 0 305 C0 204.35 0 103.7 0 0 Z " fill="#DA002F" transform="translate(693,113)"/>
<path d="M0 0 C7.92 3.96 7.92 3.96 16 8 C19.09902329 9.49454784 22.1963165 10.98085834 25.3125 12.4375 C26.02599609 12.77458984 26.73949219 13.11167969 27.47460938 13.45898438 C30.29144483 14.7812806 33.04503117 16.01501039 36 17 C36 117.98 36 218.96 36 323 C24.12 323 12.24 323 0 323 C0 216.41 0 109.82 0 0 Z " fill="#FEEC01" transform="translate(657,95)"/>
<path d="M0 0 C34.65 0 69.3 0 105 0 C105 31.02 105 62.04 105 94 C62.1 94 19.2 94 -25 94 C-22.75749674 83.90873533 -22.75749674 83.90873533 -21.30078125 80.40625 C-20.98214111 79.61694092 -20.66350098 78.82763184 -20.33520508 78.0144043 C-19.9977124 77.18465088 -19.66021973 76.35489746 -19.3125 75.5 C-11.63344093 55.91163872 -7.02664356 35.60207354 -3 15 C-2.01 10.05 -1.02 5.1 0 0 Z " fill="#FEFDFE" transform="translate(179,323)"/>
<path d="M0 0 C0 100.65 0 201.3 0 305 C-11.88 305 -23.76 305 -36 305 C-36 208.31 -36 111.62 -36 12 C-26.43 8.7 -16.86 5.4 -7 2 C-2 0 -2 0 0 0 Z " fill="#FEEA02" transform="translate(617,113)"/>
<path d="M0 0 C0 30.69 0 61.38 0 93 C-35.97 93 -71.94 93 -109 93 C-110.98 85.08 -112.96 77.16 -115 69 C-116.46246123 64.30166108 -117.93109278 59.72818838 -119.625 55.125 C-120.04031982 53.97862061 -120.45563965 52.83224121 -120.88354492 51.65112305 C-126.47033276 36.58503719 -132.98318586 21.63385545 -141.10620117 7.7487793 C-142 6 -142 6 -142 4 C-138.35400689 4.31065326 -134.70823766 4.62386424 -131.0625 4.9375 C-129.53012695 5.06801758 -129.53012695 5.06801758 -127.96679688 5.20117188 C-126.95810547 5.28818359 -125.94941406 5.37519531 -124.91015625 5.46484375 C-123.99371338 5.543396 -123.07727051 5.62194824 -122.13305664 5.70288086 C-120.44692195 5.86278314 -118.76100495 6.03101625 -117.08139038 6.24899292 C-110.41653371 7.09373236 -103.80634371 7.17865188 -97.09375 7.203125 C-95.85620972 7.20882507 -94.61866943 7.21452515 -93.34362793 7.22039795 C-90.72469934 7.22981619 -88.10575908 7.23636925 -85.48681641 7.24023438 C-81.56780902 7.2498339 -77.64935097 7.28084426 -73.73046875 7.3125 C-50.69390762 7.40970837 -28.63858801 4.83681887 -6.0769043 0.31958008 C-4 0 -4 0 0 0 Z " fill="#FEFDFD" transform="translate(284,122)"/>
<path d="M0 0 C32 4 32 4 36 5 C36 100.37 36 195.74 36 294 C24.12 294 12.24 294 0 294 C0 196.98 0 99.96 0 0 Z " fill="#FEEA02" transform="translate(733,124)"/>
<path d="M0 0 C35.97 0 71.94 0 109 0 C109 31.02 109 62.04 109 94 C73.03 94 37.06 94 0 94 C0 62.98 0 31.96 0 0 Z " fill="#FEFEFE" transform="translate(392,323)"/>
<path d="M0 0 C0 93.39 0 186.78 0 283 C-11.22 283 -22.44 283 -34 283 C-34 190.27 -34 97.54 -34 2 C-10 0 -10 0 0 0 Z " fill="#FCE902" transform="translate(541,135)"/>
<path d="M0 0 C5.27548967 1.75849656 10.44728822 3.52032618 15.62915039 5.49853516 C45.87866841 16.98407399 76.78217857 21.30432519 109 23 C109 48.74 109 74.48 109 101 C73.03 101 37.06 101 0 101 C0 67.67 0 34.34 0 0 Z " fill="#FEFEFE" transform="translate(392,114)"/>
<path d="M0 0 C-0.53367187 1.10472656 -1.06734375 2.20945313 -1.6171875 3.34765625 C-17.69790968 36.82815099 -29.91917208 70.12921135 -35.68238831 106.97496033 C-35.96441942 108.77314408 -36.25685208 110.56968954 -36.55078125 112.3659668 C-38.24051166 123.99173124 -38.3044865 135.5375343 -38.26074219 147.27026367 C-38.25007361 150.6640838 -38.26066499 154.05736829 -38.2734375 157.45117188 C-38.28647579 175.71151101 -37.20328822 193.61435918 -33.6875 211.5625 C-33.4694873 212.69961426 -33.25147461 213.83672852 -33.02685547 215.00830078 C-28.66494186 237.30705541 -22.23706047 258.59354546 -13.5769043 279.60546875 C-13.2550415 280.38664062 -12.93317871 281.1678125 -12.6015625 281.97265625 C-12.31619629 282.65593994 -12.03083008 283.33922363 -11.73681641 284.04321289 C-11 286 -11 286 -10 290 C-25.18 290 -40.36 290 -56 290 C-56 194.96 -56 99.92 -56 2 C-16 0 -16 0 0 0 Z " fill="#FDEB01" transform="translate(865,128)"/>
<path d="M0 0 C6.27 2.97 12.54 5.94 19 9 C51.14026601 19.5666628 81.93789998 16.03105001 112 1 C112 26.74 112 52.48 112 79 C75.04 79 38.08 79 0 79 C0 52.93 0 26.86 0 0 Z " fill="#A40044" transform="translate(449,809)"/>
<path d="M0 0 C13.055625 -0.12375 13.055625 -0.12375 26.375 -0.25 C30.46720947 -0.30462402 30.46720947 -0.30462402 34.64208984 -0.36035156 C36.83169775 -0.37204633 39.02131443 -0.38223628 41.2109375 -0.390625 C42.88313354 -0.4213208 42.88313354 -0.4213208 44.58911133 -0.45263672 C54.8379348 -0.45716059 62.79017442 2.05486622 70.30859375 9.1328125 C75.47849759 14.84000427 77.36435343 20.90508838 77.2890625 28.484375 C76.61901639 34.31558713 74.43436556 40.06116526 70 44 C71.72802512 47.73020806 74.01528176 50.69921681 76.5625 53.90234375 C81.0268339 60.41687446 80.671471 67.36732969 80 75 C77.56256519 84.83731176 70.27225392 91.57357135 62.015625 96.87109375 C58.38688942 98.90346697 55.50882607 99.12253604 51.42700195 99.11352539 C49.69166199 99.11334412 49.69166199 99.11334412 47.92126465 99.11315918 C46.70588013 99.10804321 45.49049561 99.10292725 44.23828125 99.09765625 C43.12078491 99.09664917 42.00328857 99.09564209 40.85192871 99.09460449 C36.67210872 99.08936715 32.49230335 99.07540592 28.3125 99.0625 C14.2978125 99.0315625 14.2978125 99.0315625 0 99 C0 66.33 0 33.66 0 0 Z " fill="#000000" transform="translate(585,438)"/>
<path d="M0 0 C36.96 0 73.92 0 112 0 C112 23.1 112 46.2 112 70 C105.07 67.03 98.14 64.06 91 61 C69.86206564 55.04565229 48.12697868 53.04590337 27 60 C25.95070313 60.30035156 24.90140625 60.60070312 23.8203125 60.91015625 C16.92633434 62.9783497 10.84183333 66.05669944 4.6171875 69.609375 C2 71 2 71 0 71 C0 47.57 0 24.14 0 0 Z " fill="#A40044" transform="translate(449,558)"/>
<path d="M0 0 C7.97036797 6.47592398 13.34618531 14.88839384 15.87890625 24.91796875 C16.15520042 32.94832509 8.68854439 40.89075577 3.625 46.75 C-9.83105956 60.93960966 -25.82204595 68.28174376 -44 74.4375 C-45.14988403 74.83835815 -45.14988403 74.83835815 -46.32299805 75.24731445 C-57.81052423 79.19832171 -69.95481992 81.06507948 -82 82.4375 C-82.92941406 82.55867187 -83.85882813 82.67984375 -84.81640625 82.8046875 C-89.7440118 83.1808406 -92.38415533 82.61838762 -96.1875 79.375 C-97.47674323 78.08057909 -98.74805 76.76802426 -100 75.4375 C-100.59554688 74.88578125 -101.19109375 74.3340625 -101.8046875 73.765625 C-109.0316574 67.02045309 -114.81686531 58.38208294 -119 49.4375 C-119 48.7775 -119 48.1175 -119 47.4375 C-118.02160156 47.26734375 -117.04320312 47.0971875 -116.03515625 46.921875 C-101.83601208 44.34532234 -90.64437411 40.20903132 -82.03125 27.9765625 C-81.6909375 27.46867188 -81.350625 26.96078125 -81 26.4375 C-77.73558022 27.08296482 -75.35968606 28.32708365 -72.5 30 C-65.59692799 33.51262514 -58.29120189 33.66804289 -50.875 31.5 C-40.29590972 26.7713006 -34.03935458 16.84501732 -28.70703125 7.06640625 C-26.53022929 3.22706299 -24.70129034 0.3248295 -20.28515625 -1.16015625 C-13.82120704 -2.29825329 -6.00736189 -3.11095526 0 0 Z " fill="#EBB900" transform="translate(535,715.5625)"/>
<path d="M0 0 C1.18207031 0.41378906 2.36414063 0.82757812 3.58203125 1.25390625 C12.22086152 4.40172073 19.58748621 8.49326035 27 14 C27.804375 14.58136719 28.60875 15.16273438 29.4375 15.76171875 C42.03759221 25.31540708 52.88442945 37.13289501 62 50 C62.71414063 50.94617188 63.42828125 51.89234375 64.1640625 52.8671875 C67.88579944 58.10134344 70.00331573 62.200264 69.5703125 68.6953125 C67.97974986 77.91186037 65.72606218 87.39871628 62 96 C61.34 96 60.68 96 60 96 C58.4921875 94.3203125 58.4921875 94.3203125 56.875 92.125 C56.33617187 91.40570312 55.79734375 90.68640625 55.2421875 89.9453125 C54 88 54 88 54 86 C53.43023438 85.731875 52.86046875 85.46375 52.2734375 85.1875 C49.12430213 83.5425908 46.31193861 81.48546898 43.4140625 79.4375 C37.53771074 75.93831319 32.26707584 75.73728551 25.625 75.875 C24.79355469 75.88402344 23.96210937 75.89304687 23.10546875 75.90234375 C21.07018663 75.9257378 19.03505436 75.96160275 17 76 C16.78085937 75.32195312 16.56171875 74.64390625 16.3359375 73.9453125 C12.8147318 63.61071692 8.80911295 54.59440739 -1 49 C-7.8834053 45.72165149 -15.76902932 46.00952475 -22.9375 48.375 C-24.30018395 48.89486786 -25.65455075 49.43702891 -27 50 C-28.66666667 50.66666667 -30.33333333 51.33333333 -32 52 C-39.66213517 44.86427106 -46.18833487 38.44026369 -47.375 27.5625 C-47.17215825 16.48734056 -39.57636966 5.57636966 -32 -2 C-22.5852344 -5.53904442 -9.10637746 -3.36567647 0 0 Z " fill="#EBB900" transform="translate(537,663)"/>
<path d="M0 0 C-1.10693197 2.80990423 -2.25108395 5.49251082 -3.625 8.1875 C-6.92089401 16.03003755 -4.90874985 23.58998694 -2.1640625 31.30078125 C-1.15970131 33.6296859 -0.14303397 35.42894485 1.375 37.4375 C1.91125 38.283125 2.4475 39.12875 3 40 C1.43850204 45.43702301 -2.09799837 50.03309673 -5.125 54.74609375 C-9.76406929 62.79681191 -10.60709824 72.36667506 -8.41796875 81.40234375 C-5.16690997 88.66155718 1.41634098 94.48769764 7 100 C3.31375442 109.83573003 -3.29846761 117.75699915 -11.6875 124 C-18.60824209 126.08928063 -26.21753985 126.39825695 -32.75 123 C-44.55692814 115.28758455 -52.24793947 105.6613486 -56 92 C-59.53416413 73.59878545 -57.20712821 54.05573594 -53 36 C-52.81808105 35.14422363 -52.63616211 34.28844727 -52.44873047 33.40673828 C-49.1726754 18.06285569 -49.1726754 18.06285569 -44.625 14.3125 C-42.55078125 13.15234375 -42.55078125 13.15234375 -40 12 C-38.87980469 11.42378906 -37.75960938 10.84757813 -36.60546875 10.25390625 C-25.14775368 4.48753655 -12.96570649 -0.25422954 0 0 Z " fill="#EBB900" transform="translate(496,619)"/>
<path d="M0 0 C9.59634523 2.19943519 16.29625378 7.98955756 21.5625 16.125 C23.24075494 18.85379894 24.04897143 20.27453946 23.83203125 23.48828125 C20.48649141 33.5877278 12.32106168 41.57711548 5 49 C3.81083984 50.20849609 3.81083984 50.20849609 2.59765625 51.44140625 C-16.15586702 69.38362901 -42.24131387 77.55873564 -67.80249023 77.35180664 C-86.88813478 76.87536617 -103.97190469 71.2604095 -120 61 C-117.42692483 58.42692483 -115.81612409 58.44998158 -112.2421875 57.88671875 C-111.0668042 57.69343994 -109.8914209 57.50016113 -108.68041992 57.30102539 C-107.42463135 57.09856201 -106.16884277 56.89609863 -104.875 56.6875 C-94.20737047 54.87060092 -84.14930424 52.76942009 -74 49 C-73.37383789 48.77199707 -72.74767578 48.54399414 -72.10253906 48.30908203 C-50.19041156 40.26727604 -30.96902189 28.79006182 -19.69995117 7.78417969 C-14.75474318 -1.41393291 -10.12924323 -0.95538414 0 0 Z " fill="#EAB900" transform="translate(571,743)"/>
<path d="M0 0 C7.48607846 3.83008665 13.89309664 9.09606403 18.0234375 16.546875 C18.0234375 17.536875 18.0234375 18.526875 18.0234375 19.546875 C12.4134375 22.516875 6.8034375 25.486875 1.0234375 28.546875 C-5.9765625 22.546875 -5.9765625 22.546875 -8.6640625 20.171875 C-14.25158023 17.43082856 -20.41174502 17.45225945 -26.35546875 19.27734375 C-31.66414097 21.74532229 -36.01054497 24.9267643 -38.08984375 30.56640625 C-39.34481983 35.31286965 -39.30649652 40.04034808 -39.2890625 44.921875 C-39.30517578 45.81648438 -39.32128906 46.71109375 -39.33789062 47.6328125 C-39.34320407 54.94411283 -38.25492678 61.90693864 -33.7265625 67.859375 C-28.38717346 73.07741429 -24.89732667 74.79450313 -17.4765625 75.109375 C-12.42220484 74.94670602 -9.11909208 74.32869349 -5.27734375 70.9921875 C-3.48790388 69.00392097 -2.14357238 66.94954241 -0.9765625 64.546875 C3.8105803 65.12352891 7.27472574 67.18770496 11.3359375 69.609375 C11.98111328 69.98642578 12.62628906 70.36347656 13.29101562 70.75195312 C14.87221902 71.67724993 16.4483521 72.61120181 18.0234375 73.546875 C16.41948588 81.24243011 11.02452355 87.6841393 5.0234375 92.546875 C2.4426482 94.12484332 -0.18399044 95.39151675 -2.9765625 96.546875 C-3.68425781 96.90265625 -4.39195312 97.2584375 -5.12109375 97.625 C-14.96142336 100.80190532 -28.24582878 99.75611713 -37.37109375 95.1484375 C-49.44268837 87.72811697 -56.67932689 78.08547752 -60.9765625 64.546875 C-64.86498543 47.46143454 -62.57870042 27.96593356 -53.58984375 12.91015625 C-41.65328021 -4.57560874 -18.68967505 -7.75469035 0 0 Z " fill="#040300" transform="translate(514.9765625,440.453125)"/>
<path d="M0 0 C23.43 0 46.86 0 71 0 C71 6.93 71 13.86 71 21 C54.5 21 38 21 21 21 C21 26.28 21 31.56 21 37 C30.57 37 40.14 37 50 37 C50 43.93 50 50.86 50 58 C40.43 58 30.86 58 21 58 C21 71.2 21 84.4 21 98 C14.07 98 7.14 98 0 98 C0 65.66 0 33.32 0 0 Z " fill="#050400" transform="translate(342,438)"/>
<path d="M0 0 C0.89412598 0.00555908 1.78825195 0.01111816 2.70947266 0.0168457 C4.07773193 0.02421753 4.07773193 0.02421753 5.47363281 0.03173828 C12.18582046 0.14837316 17.95656291 0.98926084 24.27197266 3.3293457 C25.36509766 3.68125977 26.45822266 4.03317383 27.58447266 4.39575195 C53.65585347 13.05762518 74.60137627 30.75246539 86.97314453 55.32861328 C93.73478669 69.3736466 96.86321416 82.77608508 97.27197266 98.3293457 C94.35418692 94.72190152 91.55559411 91.04084097 88.77197266 87.3293457 C74.01954022 67.98899565 56.20057976 51.29897195 33.27197266 42.3293457 C31.78310547 41.7105957 31.78310547 41.7105957 30.26416016 41.0793457 C20.94527701 37.782247 12.11391311 38.13657998 2.33374023 38.91577148 C-0.90510149 39.06569777 -3.5772539 39.10750076 -6.72802734 38.3293457 C-9.55624966 35.69005051 -11.14803305 32.83091329 -12.72802734 29.3293457 C-13.18177734 28.4012207 -13.63552734 27.4730957 -14.10302734 26.5168457 C-15.54674368 19.15389239 -16.13322046 12.66639336 -11.85302734 6.2043457 C-7.99949042 1.12214483 -6.29618156 0.07068252 0 0 Z " fill="#EAB800" transform="translate(509.72802734375,618.670654296875)"/>
<path d="M0 0 C1.29965551 2.59931103 0.78933254 3.54716649 0.07421875 6.33203125 C-0.14468018 7.20561279 -0.3635791 8.07919434 -0.58911133 8.97924805 C-0.82782959 9.91422119 -1.06654785 10.84919434 -1.3125 11.8125 C-4.37712646 24.40941143 -6.17666795 36.06364599 -6.3125 49.0625 C-6.33030518 50.15135498 -6.34811035 51.24020996 -6.36645508 52.36206055 C-6.35016256 68.97165365 -1.05136882 83.60491636 10 96 C7.17351107 104.07368371 1.26784289 108.61330439 -6.1875 112.4375 C-11.87103128 115.1712562 -16.52478548 116.1382556 -22.8125 116.0625 C-24.27623047 116.04896484 -24.27623047 116.04896484 -25.76953125 116.03515625 C-26.50558594 116.02355469 -27.24164063 116.01195312 -28 116 C-38.04396064 96.25842219 -38.90878164 70.00051347 -32.38183594 49.01220703 C-26.08475451 29.86889617 -15.9113034 12.65046839 0 0 Z " fill="#E9B800" transform="translate(441,642)"/>
<path d="M0 0 C4.54230412 -0.10800723 9.08203539 -0.18733842 13.625 -0.25 C15.55279297 -0.30027344 15.55279297 -0.30027344 17.51953125 -0.3515625 C29.27806449 -0.47341259 29.27806449 -0.47341259 34 4 C36.47035712 6.47035712 36.35042281 7.3960007 36.4375 10.8125 C36.37356879 14.83435433 36.19581297 15.74750432 33.625 19.0625 C29.56930199 22.05599139 27.49300536 22.11953481 22.4609375 22.09765625 C21.15898438 22.09443359 19.85703125 22.09121094 18.515625 22.08789062 C17.13541601 22.07953466 15.75520768 22.07106971 14.375 22.0625 C12.98698074 22.05748501 11.59895978 22.0529221 10.2109375 22.04882812 C6.80727327 22.03700985 3.4036313 22.0190739 0 22 C0 14.74 0 7.48 0 0 Z " fill="#E3B300" transform="translate(606,494)"/>
<path d="M0 0 C4.39620224 -0.0809117 8.79091597 -0.14046573 13.1875 -0.1875 C14.43337891 -0.21263672 15.67925781 -0.23777344 16.96289062 -0.26367188 C18.16494141 -0.27333984 19.36699219 -0.28300781 20.60546875 -0.29296875 C21.71043701 -0.3086792 22.81540527 -0.32438965 23.95385742 -0.34057617 C27.38865356 0.04345369 29.24290535 0.95186365 32 3 C33.462958 5.925916 33.44523109 7.75617347 33 11 C30.17366435 14.50608727 28.48233284 15.80389511 23.9753418 16.40014648 C20.3464427 16.49238281 16.75290724 16.43531978 13.125 16.3125 C11.86429688 16.28994141 10.60359375 16.26738281 9.3046875 16.24414062 C6.20261385 16.18538923 3.10115324 16.09571461 0 16 C0 10.72 0 5.44 0 0 Z " fill="#E0B100" transform="translate(606,458)"/>
</svg>
